<svg width="72" height="72" viewBox="0 0 72 72" fill="none" xmlns="http://www.w3.org/2000/svg">
<path d="M36 59C48.7025 59 59 48.7025 59 36C59 23.2975 48.7025 13 36 13C23.2975 13 13 23.2975 13 36C13 48.7025 23.2975 59 36 59Z" stroke="black" stroke-miterlimit="10" stroke-linecap="round" stroke-linejoin="round"/>
<path d="M19.074 30.4073C19.074 30.4073 18.121 38.9581 25.9348 38.3258C28.5545 38.1138 33.7512 37.6751 33.8018 29.9831C33.8064 29.2852 33.794 28.3842 32.991 27.3533C31.9263 25.9864 29.4194 25.3822 23.0464 25.9313C23.0465 25.9314 19.6002 25.8323 19.074 30.4073Z" stroke="black" stroke-miterlimit="10" stroke-linecap="round" stroke-linejoin="round"/>
<path d="M19.1447 29.8742L18.7117 26.5029L22.5446 25.9752" stroke="black" stroke-miterlimit="10" stroke-linecap="round" stroke-linejoin="round"/>
<path d="M52.9325 30.4073C52.9325 30.4073 53.8855 38.9581 46.0717 38.3258C43.452 38.1138 38.2553 37.6751 38.2047 29.9831C38.2001 29.2852 38.2125 28.3842 39.0155 27.3533C40.0802 25.9864 42.5871 25.3822 48.9601 25.9313C48.9601 25.9314 52.4064 25.8323 52.9325 30.4073Z" stroke="black" stroke-miterlimit="10" stroke-linecap="round" stroke-linejoin="round"/>
<path d="M31.6962 26.3593C31.6962 26.3593 35.8203 28.8932 40.3531 26.3593" stroke="black" stroke-miterlimit="10" stroke-linecap="round" stroke-linejoin="round"/>
<path d="M33.8022 31.2614C33.8022 31.2614 35.9297 27.5105 38.1852 31.2614" stroke="black" stroke-miterlimit="10" stroke-linecap="round" stroke-linejoin="round"/>
<path d="M52.8552 29.8767L53.2883 26.5054L49.4554 25.9777" stroke="black" stroke-miterlimit="10" stroke-linecap="round" stroke-linejoin="round"/>
<path d="M32.1434 47.3742C31.8614 49.0976 31.709 52.8625 36 52.0142V47.6445" stroke="black" stroke-miterlimit="10"/>
<path d="M30 31C30 32.6568 28.6552 34 27 34C25.3447 34 24 32.6567 24 31C24 29.3448 25.3447 28 27 28C28.6552 28 30 29.3448 30 31Z" fill="black"/>
<path d="M48 31C48 32.6568 46.6553 34 45 34C43.3447 34 42 32.6567 42 31C42 29.3448 43.3447 28 45 28C46.6553 28 48 29.3448 48 31Z" fill="black"/>
<path d="M39.8566 47.3742C40.1386 49.0976 40.291 52.8625 36 52.0142V47.6445" stroke="black" stroke-miterlimit="10"/>
<path d="M45.8148 44.8055C39.2408 48.3303 31.7694 48.4631 26.1853 44.8055" stroke="black" stroke-miterlimit="10" stroke-linecap="round" stroke-linejoin="round"/>
<path d="M19.5 28.5L19 27L21 26.5L19.5 28.5Z" stroke="black"/>
<path d="M52.5 29L53 27.5L51 27L52.5 29Z" stroke="black"/>
<path d="M34.0845 30.7082C34.2173 29.7557 33.448 27.8961 33 27L36 27.5C36.5 28.3333 37.2 29.9 36 29.5C35.1255 29.2085 34.421 30.1066 34.0845 30.7082C34.0691 30.8186 34.0416 30.9169 34 31C33.7915 31.417 33.8438 31.1384 34.0845 30.7082Z" fill="black"/>
<path d="M33 27C33.5 28 34.4 30.2 34 31C33.5 32 34.5 29 36 29.5C37.2 29.9 36.5 28.3333 36 27.5L33 27Z" stroke="black"/>
<path d="M38 31C37.6 30.2 38 28.5 38.5 27.5H35.6626C35.1626 28.3333 34.4626 29.9 35.6626 29.5C36.8425 29.1067 37.9219 30.8792 38.0854 31.1667C38.1132 31.2155 38.1145 31.2215 38.0854 31.1667C38.068 31.134 38.0398 31.0797 38 31Z" fill="black"/>
<path d="M38.5 27.5C38 28.5 37.6 30.2 38 31C38.5 32 37.1626 29 35.6626 29.5C34.4626 29.9 35.1626 28.3333 35.6626 27.5H38.5Z" stroke="black"/>
</svg>
