<svg width="72" height="72" viewBox="0 0 72 72" fill="none" xmlns="http://www.w3.org/2000/svg">
<path d="M34 16.0109V13.5C34 12.1193 35.1193 11 36.5 11C37.8807 11 39 12.1193 39 13.5V16" stroke="black" stroke-miterlimit="2" stroke-linecap="round" stroke-linejoin="round"/>
<path d="M47.4505 56H24.5495C19.8473 56 16 52.1527 16 47.4505V24.5495C16 19.8473 19.8473 16 24.5495 16H47.4505C52.1527 16 56 19.8473 56 24.5495V47.4505C56 52.1527 52.1527 56 47.4505 56Z" stroke="black" stroke-miterlimit="2" stroke-linecap="round" stroke-linejoin="round"/>
<path d="M44.8346 31.836C46.3997 31.836 47.6684 30.5673 47.6684 29.0022C47.6684 27.4371 46.3997 26.1684 44.8346 26.1684C43.2695 26.1684 42.0008 27.4371 42.0008 29.0022C42.0008 30.5673 43.2695 31.836 44.8346 31.836Z" stroke="black" stroke-miterlimit="2" stroke-linecap="round" stroke-linejoin="round"/>
<path d="M27.3342 31.8355C28.8993 31.8355 30.168 30.5668 30.168 29.0017C30.168 27.4366 28.8993 26.1679 27.3342 26.1679C25.7691 26.1679 24.5004 27.4366 24.5004 29.0017C24.5004 30.5668 25.7691 31.8355 27.3342 31.8355Z" stroke="black" stroke-miterlimit="2" stroke-linecap="round" stroke-linejoin="round"/>
<path d="M44.5 47.5H27.5C25.3 47.5 23.5 45.7 23.5 43.5C23.5 41.3 25.3 39.5 27.5 39.5H44.5C46.7 39.5 48.5 41.3 48.5 43.5C48.5 45.7 46.7 47.5 44.5 47.5Z" stroke="black" stroke-miterlimit="2"/>
<path d="M13.5 41C12.1193 41 11 39.8807 11 38.5V30.5C11 29.1193 12.1193 28 13.5 28C14.8807 28 16 29.1193 16 30.5V38.5C16 39.8807 14.8807 41 13.5 41Z" stroke="black" stroke-miterlimit="2" stroke-linecap="round" stroke-linejoin="round"/>
<path d="M58.5 41C59.8807 41 61 39.8807 61 38.5V30.5C61 29.1193 59.8807 28 58.5 28C57.1193 28 56 29.1193 56 30.5V38.5C56 39.8807 57.1193 41 58.5 41Z" stroke="black" stroke-miterlimit="2" stroke-linecap="round" stroke-linejoin="round"/>
<path d="M28 40V47" stroke="black" stroke-miterlimit="2" stroke-linecap="round" stroke-linejoin="round"/>
<path d="M33 40V47" stroke="black" stroke-miterlimit="2" stroke-linecap="round" stroke-linejoin="round"/>
<path d="M38 40V47" stroke="black" stroke-miterlimit="2" stroke-linecap="round" stroke-linejoin="round"/>
<path d="M43 40V47" stroke="black" stroke-miterlimit="2" stroke-linecap="round" stroke-linejoin="round"/>
</svg>
