<svg width="100" height="100" viewBox="0 0 100 100" fill="none" xmlns="http://www.w3.org/2000/svg">
<path d="M100 50C100 61.5678 95.989 72.7777 88.6505 81.7197C81.312 90.6617 71.1 96.7825 59.7545 99.0393C48.409 101.296 36.632 99.5491 26.4302 94.0961C16.2283 88.6431 8.23282 79.8214 3.80602 69.1342C-0.620768 58.447 -1.20496 46.5554 2.15298 35.4858C5.51093 24.4161 12.6032 14.8532 22.2215 8.42652C31.8397 1.99982 43.3888 -0.893075 54.9009 0.240763C66.4129 1.3746 77.1757 6.46501 85.3553 14.6447L80.052 19.948C73.0993 12.9953 63.951 8.66841 54.1657 7.70465C44.3805 6.74089 34.5638 9.19984 26.3883 14.6625C18.2128 20.1252 12.1843 28.2537 9.33003 37.6629C6.47578 47.0721 6.97235 57.1799 10.7351 66.264C14.4979 75.3482 21.2941 82.8466 29.9656 87.4817C38.6372 92.1167 48.6477 93.6016 58.2913 91.6834C67.935 89.7651 76.6152 84.5624 82.8529 76.9617C89.0907 69.361 92.5 59.8326 92.5 50L100 50Z" fill="black"/>
<path d="M59 48L87 16.5L79.5 37.5172L100 48H59Z" fill="url(#paint0_linear)"/>
<defs>
<linearGradient id="paint0_linear" x1="79.5" y1="16.5" x2="79.5" y2="48" gradientUnits="userSpaceOnUse">
<stop stop-color="#61B3FF"/>
<stop offset="1" stop-color="#0400CD"/>
</linearGradient>
</defs>
</svg>
