<svg width="71" height="80" viewBox="0 0 71 80" fill="none" xmlns="http://www.w3.org/2000/svg">
<path d="M6.42 72.0029L0 0H70.5429L64.1143 71.9914L35.2286 80L6.42 72.0029Z" fill="#E44F26"/>
<path d="M35.2713 73.8799L58.6142 67.4085L64.1056 5.8885H35.2713V73.8799Z" fill="#F1662A"/>
<path d="M35.2713 32.5914H23.5856L22.7799 23.5486H35.2713V14.7171H13.1285L13.3399 17.0886L15.5085 41.4229H35.2713V32.5914V32.5914Z" fill="#EBEBEB"/>
<path d="M35.2714 55.5257L35.2314 55.5372L25.3971 52.8829L24.7685 45.84H15.9028L17.1399 59.7029L35.2314 64.7257L35.2714 64.7143V55.5257Z" fill="#EBEBEB"/>
<path d="M35.24 32.5914V41.4228H46.1142L45.0914 52.8771L35.24 55.5342V64.7228L53.3457 59.7028L53.4771 58.2114L55.5514 34.9628L55.7685 32.5914H35.24V32.5914Z" fill="white"/>
<path d="M35.24 14.7171V23.5486H56.5714L56.7485 21.5657L57.1514 17.0886L57.3628 14.7171H35.24V14.7171Z" fill="white"/>
</svg>
