<svg width="27" height="25" viewBox="0 0 27 25" fill="none" xmlns="http://www.w3.org/2000/svg">
<path d="M16.1591 18.2147H9.89828C10.0442 18.2147 10.1619 19.6499 10.1619 21.4177C10.1619 23.1868 10.0446 24.6219 9.89828 24.6219H16.1591C16.0136 24.6219 15.8955 23.1868 15.8955 21.4177C15.8963 19.6499 16.0136 18.2147 16.1591 18.2147Z" fill="#BFBEBE"/>
<path d="M12.0908 18.2147H9.89871C10.0446 18.2147 10.1624 19.6499 10.1624 21.4177C10.1624 23.1868 10.045 24.6219 9.89871 24.6219H12.0908C12.2368 24.6219 12.3545 23.1868 12.3545 21.4177C12.3545 19.6499 12.2368 18.2147 12.0908 18.2147Z" fill="#AEAEAE"/>
<path d="M26.0574 18.1774C26.0574 19.8316 24.8107 21.1719 23.2754 21.1719H2.78477C1.24787 21.1719 0.00158691 19.8316 0.00158691 18.1774V3.00461C0.00158691 1.35326 1.24787 0.012146 2.78477 0.012146H23.2754C24.8107 0.012146 26.0574 1.35203 26.0574 3.00461V18.1774" fill="#D1D2D2"/>
<path d="M5.27084 18.1774V3.00461C5.27084 1.35326 6.51712 0.012146 8.05361 0.012146H2.78318C1.24628 0.012146 0 1.35203 0 3.00461V18.1774C0 19.8316 1.24628 21.1719 2.78318 21.1719H8.05361C6.51712 21.1719 5.27084 19.8312 5.27084 18.177" fill="#C6C5C5"/>
<path d="M26.0584 13.9396C26.0584 15.591 24.8117 16.9317 23.2764 16.9317H2.78578C1.24887 16.9317 0.00259399 15.5922 0.00259399 13.9396V2.9941C0.00259399 1.33988 1.24887 0 2.78578 0H23.2764C24.8117 0 26.0584 1.33988 26.0584 2.9941V13.9396Z" fill="#243438"/>
<path d="M0.000427246 13.1667H26.0579V17.8129H0.000427246V13.1667Z" fill="#243438"/>
<path d="M23.9998 1.3922H2.05764C1.87657 1.3922 1.72574 1.49234 1.72574 1.61292V15.8746C1.72574 15.9956 1.87657 16.0954 2.05764 16.0954H23.9998C24.0983 16.0954 24.1731 16.0745 24.2275 16.0377L24.2356 16.0296C24.2356 16.0296 24.2422 16.0246 24.2438 16.0202C24.2706 16.0062 24.2932 15.9854 24.3092 15.9598C24.3252 15.9342 24.3341 15.9048 24.335 15.8746V6.80855V1.61578C24.3333 1.4952 24.1809 1.39506 23.9998 1.39506" fill="#58C5E8"/>
<path d="M13.351 10.9222C17.0199 13.1205 20.6043 14.6173 24.3333 15.5227V1.61293C24.3333 1.49235 24.1808 1.3922 23.9998 1.3922H3.86472C5.93299 5.28964 9.49239 8.61074 13.3518 10.9222" fill="#28A6DE"/>
<path d="M13.3804 13.2566C8.95367 10.8454 4.52159 7.50546 1.72574 3.38117V15.8742C1.72574 15.9952 1.87657 16.0949 2.05764 16.0949H19.9662C17.7786 15.3899 15.5971 14.4657 13.3813 13.2582" fill="#28A6DE"/>
<path d="M17.8567 24.4797C17.8567 24.7666 17.7185 25 17.5489 25H8.51142C8.34015 25 8.202 24.7666 8.202 24.4797C8.202 24.1923 8.34015 23.9593 8.51142 23.9593H17.5489C17.7185 23.9581 17.8567 24.1919 17.8567 24.4797Z" fill="#D1D2D2"/>
<path d="M11.405 24.4797C11.405 24.1923 11.5431 23.9593 11.7128 23.9593H8.39168C8.22164 23.9593 8.08389 24.1923 8.08389 24.4797C8.08389 24.7666 8.22205 25 8.39168 25H11.7128C11.5431 25 11.405 24.7666 11.405 24.4797Z" fill="#C6C5C5"/>
<path d="M14.0181 18.7114C13.978 18.673 13.9196 18.6619 13.8399 18.6848L13.3808 18.8021C13.2378 18.8409 13.1654 18.9354 13.1654 19.0874L13.1638 19.5783C13.1638 19.6495 13.1797 19.7022 13.2116 19.7324C13.2251 19.7454 13.2411 19.7554 13.2586 19.762C13.2761 19.7685 13.2947 19.7714 13.3134 19.7704C13.3379 19.7704 13.3608 19.7651 13.3902 19.7594L13.8489 19.6425C13.9919 19.6041 14.0647 19.5093 14.0663 19.3552V18.8659C14.0651 18.7935 14.0491 18.7416 14.0181 18.7114V18.7114ZM13.7745 19.2701C13.7745 19.3245 13.7491 19.358 13.6972 19.3723L13.5345 19.4148C13.5256 19.4166 13.5166 19.4177 13.5075 19.4181C13.4942 19.4184 13.4811 19.4139 13.4708 19.4054C13.4601 19.3952 13.4532 19.376 13.4552 19.3482V19.1737C13.4552 19.1193 13.4806 19.0858 13.5317 19.0719L13.6964 19.0294C13.7246 19.0228 13.7458 19.0261 13.7581 19.0388C13.7704 19.0498 13.7757 19.0682 13.7757 19.0944V19.2705H13.7745V19.2701Z" fill="#243438"/>
<path d="M12.894 19.0854C12.894 18.9333 12.8225 18.8385 12.6782 18.8001L12.2196 18.6828C12.1403 18.6599 12.0814 18.6721 12.0434 18.7093C12.0099 18.7396 11.994 18.7915 11.994 18.8634L11.9956 19.3519C11.9972 19.506 12.0688 19.6012 12.2114 19.6392L12.6717 19.7566C12.6986 19.7647 12.724 19.7676 12.7461 19.7676C12.7648 19.7686 12.7835 19.7657 12.801 19.7591C12.8185 19.7525 12.8345 19.7423 12.8478 19.7292C12.8797 19.6993 12.8957 19.647 12.8957 19.5751L12.894 19.0854ZM12.5891 19.4034C12.5809 19.412 12.5687 19.4161 12.5527 19.4161C12.5527 19.4161 12.5351 19.4144 12.5257 19.4128L12.3622 19.3703C12.3116 19.356 12.2846 19.3225 12.2846 19.2681V19.0919C12.2846 19.0666 12.2911 19.0478 12.3017 19.0363C12.3144 19.0237 12.3353 19.0204 12.3651 19.0269L12.5286 19.0694C12.5793 19.0833 12.6063 19.1169 12.6063 19.1712V19.3474C12.6063 19.3727 12.6063 19.3919 12.5891 19.4034" fill="#243438"/>
<path d="M13.2165 20.3439C13.2247 20.3439 13.2325 20.3423 13.2435 20.3386L13.407 20.2965C13.4577 20.2847 13.4847 20.2495 13.4847 20.1935V20.0194C13.4853 19.9994 13.4798 19.9797 13.4687 19.963C13.4544 19.9491 13.4319 19.9474 13.4054 19.9544L13.2402 19.9965C13.1896 20.0092 13.1638 20.0439 13.1638 20.0995L13.1622 20.2748C13.1622 20.3002 13.1687 20.3174 13.1797 20.3284C13.1879 20.339 13.2006 20.3439 13.2165 20.3439Z" fill="#243438"/>
<path d="M12.8434 20.3439C12.8336 20.3438 12.8239 20.342 12.8148 20.3386L12.6513 20.2965C12.6006 20.2847 12.5748 20.2495 12.5748 20.1935L12.5732 20.0194C12.5732 19.9936 12.5797 19.9765 12.5908 19.963C12.6034 19.9491 12.6255 19.9474 12.6525 19.9544L12.8192 19.9965C12.8687 20.0092 12.8957 20.0439 12.8957 20.0995V20.2748C12.8957 20.3002 12.8891 20.3174 12.8797 20.3284C12.8752 20.3335 12.8696 20.3375 12.8633 20.3402C12.857 20.3429 12.8502 20.3442 12.8434 20.3439" fill="#243438"/>
</svg>
