<svg width="72" height="80" viewBox="0 0 72 80" fill="none" xmlns="http://www.w3.org/2000/svg">
<path d="M6.95999 72.0029L0.542847 0H71.08L64.6543 71.9914L35.7686 80L6.95999 72.0029Z" fill="#1572B6"/>
<path d="M35.8114 73.88L59.1543 67.4086L64.6457 5.88858H35.8114V73.88Z" fill="#33A9DC"/>
<path d="M35.8114 31.9743H47.4971L48.3028 22.9314H35.8114V14.1H57.9543L57.7428 16.4686L55.5743 40.8057H35.8114V31.9743V31.9743Z" fill="white"/>
<path d="M35.8657 54.9086L35.8257 54.92L25.9914 52.2628L25.3628 45.22H16.4971L17.7342 59.0857L35.8228 64.1086L35.8657 64.0971V54.9086V54.9086Z" fill="#EBEBEB"/>
<path d="M46.7457 40.4314L45.6828 52.2571L35.8342 54.9143V64.1029L53.9371 59.0857L54.0714 57.5943L55.6057 40.4314H46.7457V40.4314Z" fill="white"/>
<path d="M35.8428 14.1V22.9314H14.5114L14.3343 20.9457L13.9314 16.4686L13.72 14.1H35.8428V14.1Z" fill="#EBEBEB"/>
<path d="M35.8114 31.9743V40.8057H26.1L25.9229 38.82L25.5229 34.3429L25.3114 31.9743H35.8114V31.9743Z" fill="#EBEBEB"/>
</svg>
