<svg width="81" height="80" viewBox="0 0 81 80" fill="none" xmlns="http://www.w3.org/2000/svg">
<path d="M0.0799561 0H80.08V80H0.0799561V0Z" fill="#F7DF1E"/>
<path d="M21.1149 66.8538L27.2368 63.1488C28.4181 65.2428 29.4924 67.0147 32.0696 67.0147C34.5399 67.0147 36.0978 66.0484 36.0978 62.2897V36.7278H43.6156V62.3959C43.6156 70.1825 39.0512 73.7269 32.3918 73.7269C26.3778 73.7269 22.8868 70.6122 21.1146 66.8531" fill="black"/>
<path d="M47.699 66.0481L53.8203 62.5041C55.4318 65.1356 57.5262 67.0688 61.2312 67.0688C64.3465 67.0688 66.3328 65.5113 66.3328 63.3631C66.3328 60.7856 64.2921 59.8725 60.8553 58.3694L58.9762 57.5631C53.5521 55.2547 49.9543 52.3547 49.9543 46.2328C49.9543 40.5941 54.2503 36.2978 60.9631 36.2978C65.7424 36.2978 69.1793 37.9628 71.6493 42.3125L65.7956 46.0719C64.5065 43.7628 63.1109 42.85 60.9628 42.85C58.7609 42.85 57.3646 44.2463 57.3646 46.0719C57.3646 48.3272 58.7609 49.2406 61.9828 50.6369L63.8621 51.4422C70.2528 54.1813 73.8506 56.9734 73.8506 63.2559C73.8506 70.0228 68.5343 73.7278 61.3921 73.7278C54.4112 73.7278 49.9003 70.3984 47.6987 66.0484" fill="black"/>
</svg>
