<svg width="23" height="27" viewBox="0 0 23 27" fill="none" xmlns="http://www.w3.org/2000/svg">
<path d="M7.94845 8.58402L13.1822 13.8178L18.4159 19.0515L9.45154 22.7822L0.487137 26.5128L4.2178 17.5484L7.94845 8.58402Z" fill="#F1B31C"/>
<path d="M13.7027 14.7546L7.74528 8.78805L3.87306 17.894L0 27L13.7027 14.7546Z" fill="#FCEA2B"/>
<path d="M3.38674 19.037L7.99261 23.6428L5.68967 24.5801L2.44325 21.3336L3.38674 19.037Z" fill="#EA5A47"/>
<path d="M4.26901 23.1852L5.68966 24.5801L7.99218 23.6428L5.99361 21.6438L4.26901 23.1852Z" fill="#D22F27"/>
<path d="M5.71048 13.5734L8.49848 16.3614L13.37 21.2329L10.7577 22.4249L7.35555 19.0224L4.60503 16.2723L5.71048 13.5734Z" fill="#EA5A47"/>
<path d="M8.09712 19.7639L10.7577 22.4245L13.3696 21.2325L10.1061 17.969L8.09712 19.7639Z" fill="#D22F27"/>
<path d="M9.66182 7.02223C10.1217 7.02223 10.4946 6.65481 10.4946 6.20157C10.4946 5.74833 10.1217 5.38091 9.66182 5.38091C9.20192 5.38091 8.82909 5.74833 8.82909 6.20157C8.82909 6.65481 9.20192 7.02223 9.66182 7.02223Z" fill="#8967AA"/>
<path d="M22.1529 8.6877C22.6128 8.6877 22.9856 8.32028 22.9856 7.86704C22.9856 7.4138 22.6128 7.04638 22.1529 7.04638C21.693 7.04638 21.3201 7.4138 21.3201 7.86704C21.3201 8.32028 21.693 8.6877 22.1529 8.6877Z" fill="#F1B31C"/>
<path d="M20.9038 17.4314C21.3637 17.4314 21.7365 17.064 21.7365 16.6108C21.7365 16.1575 21.3637 15.7901 20.9038 15.7901C20.4439 15.7901 20.071 16.1575 20.071 16.6108C20.071 17.064 20.4439 17.4314 20.9038 17.4314Z" fill="#D22F27"/>
<path d="M12.6992 10.1192C13.3932 9.70281 14.7811 8.28716 14.7811 5.9555C14.7811 3.62384 16.3077 2.34697 17.0711 2" stroke="#EA5A47" stroke-width="3"/>
<path d="M16.8629 13.6583C17.4181 13.1031 19.2779 12.1594 22.2757 12.8256" stroke="#EA5A47" stroke-width="3"/>
</svg>
