<svg width="25" height="25" viewBox="0 0 25 25" fill="none" xmlns="http://www.w3.org/2000/svg">
<path d="M4.98921 2.34716C2.65468 3.22859 1.66307 2.55505 1.66307 2.55505C1.66307 4.84177 2.70249 4.84177 2.70249 4.84177C2.70249 4.84177 0 7.10562 0 10.8704C0 15.236 2.1807 16.7369 2.1807 16.7369C2.29296 16.8533 2.47382 17.1173 2.47382 17.1173C2.47382 17.1173 2.53618 17.4354 2.5341 17.5975C2.51955 18.7367 2.49461 20.0173 3.74191 21.2646C4.98921 22.5119 6.4839 22.5576 7.06805 22.7198C8.35277 23.0773 15.3917 22.9401 16.8698 22.8424C18.7095 22.7198 20.2541 22.1003 21.4723 20.8821C23.019 19.3354 22.3641 17.2483 22.4473 17.0217C22.5305 16.793 25.1747 13.7745 24.9481 10.0409C24.5324 3.18078 19.5432 3.38866 19.5432 3.38866C19.5432 3.38866 18.2938 0.0604401 13.3046 0.0604401C7.48382 0.0604401 5.8062 2.03949 4.98921 2.34716Z" fill="#312D2D"/>
<path d="M12.4792 22.9503C14.7701 22.9627 16.9945 23.0022 17.6971 22.8089C18.2834 22.6468 19.9942 22.3058 21.4058 20.9483C22.4701 19.9235 22.7009 18.487 22.3558 17.2147C22.3184 17.0734 12.4792 22.9503 12.4792 22.9503V22.9503Z" fill="url(#paint0_radial)"/>
<path d="M12.4793 22.9503C10.1884 22.9627 7.77069 22.9149 7.06805 22.7195C6.48181 22.5574 4.98921 22.5116 3.7419 21.2643C2.4946 20.017 2.51955 18.7365 2.5341 17.5973C2.53618 17.4538 2.48836 17.1919 2.47589 17.1295L2.4946 17.1067L12.4793 22.9503Z" fill="url(#paint1_radial)"/>
<path d="M1.5716 16.1358C1.5716 16.1358 3.55481 13.3689 4.14728 11.7432C4.26785 11.4148 4.65451 7.06792 4.4695 6.51287C4.12441 5.4693 3.69201 4.09518 2.70248 4.84149C0.829451 6.61889 0.101857 8.60418 0.0145461 10.4024C-0.139288 13.5643 1.01655 15.4831 1.5716 16.1358Z" fill="url(#paint2_radial)"/>
<path d="M20.3248 13.346H4.64412C2.95403 13.346 1.56952 14.6765 1.56952 16.3042C1.56952 17.9319 2.95195 19.2624 4.64412 19.2624H20.3248C22.0149 19.2624 23.3994 17.9319 23.3994 16.3042C23.3994 14.6765 22.0149 13.346 20.3248 13.346V13.346Z" fill="#EDC391"/>
<path d="M12.4252 1.14324C7.46511 1.14324 2.87088 6.35489 2.87088 13.8533C2.87088 21.3121 7.6044 25 12.4252 25C17.246 25 21.9796 21.3121 21.9796 13.8533C21.9796 6.35489 17.3853 1.14324 12.4252 1.14324V1.14324Z" fill="#F9DDBD"/>
<path d="M13.4896 17.3415C13.4616 17.3301 13.4323 17.3224 13.4023 17.3187H11.469C11.4398 17.3228 11.4107 17.3291 11.3816 17.3415C11.207 17.4122 11.1093 17.5931 11.1925 17.7864C11.2756 17.9798 11.6602 18.5223 12.4356 18.5223C13.211 18.5223 13.5956 17.9798 13.6788 17.7864C13.7619 17.5931 13.6642 17.4122 13.4896 17.3415V17.3415Z" fill="#DBA689"/>
<path d="M5.92676 13.4543C5.92676 13.4543 5.9621 13.4023 6.0307 13.315C6.04941 13.2942 6.06396 13.2713 6.08891 13.2443C6.11801 13.2152 6.15335 13.1861 6.18869 13.1528C6.22611 13.1216 6.26561 13.0863 6.30719 13.0489C6.34876 13.0135 6.39242 12.9865 6.43815 12.9533C6.48389 12.9221 6.5317 12.8888 6.58367 12.8576C6.63772 12.8285 6.69177 12.7994 6.7479 12.7703C6.80403 12.7391 6.86432 12.7121 6.92876 12.6892C6.99113 12.6643 7.05557 12.6394 7.12209 12.6165C7.25722 12.5791 7.3965 12.5375 7.54202 12.5188C7.68754 12.4897 7.83721 12.4876 7.98689 12.4814C8.13657 12.4897 8.28624 12.4918 8.43176 12.5188C8.57728 12.5375 8.71864 12.5791 8.85169 12.6165C8.91821 12.6394 8.98265 12.6643 9.04502 12.6892C9.10738 12.7142 9.16767 12.7391 9.22588 12.7703C9.28201 12.7994 9.33813 12.8306 9.3901 12.8576C9.44208 12.8888 9.48989 12.9221 9.53562 12.9533C9.58136 12.9865 9.62501 13.0135 9.66451 13.0468C9.70193 13.0801 9.73935 13.1133 9.77261 13.1424C9.80587 13.1736 9.83706 13.2006 9.86408 13.2277C9.89111 13.2568 9.91397 13.2838 9.93476 13.3087C10.0179 13.4064 10.0616 13.4647 10.0616 13.4647C10.2009 13.658 10.1572 13.9262 9.96386 14.0634C9.84745 14.1486 9.70193 14.1652 9.57304 14.1216L9.49405 14.0945C9.49405 14.0945 9.44208 14.0758 9.35892 14.0405C9.33813 14.0322 9.31735 14.0197 9.2924 14.0114C9.26538 14.0031 9.24043 13.9927 9.21133 13.9823C9.1552 13.9594 9.09075 13.9365 9.02007 13.9158C8.98473 13.9054 8.94939 13.8908 8.91197 13.8804C8.87247 13.8721 8.83506 13.8617 8.79348 13.8513C8.77269 13.8451 8.75398 13.8409 8.73319 13.8347C8.7124 13.8305 8.69162 13.8264 8.66875 13.8222C8.62509 13.816 8.58352 13.8035 8.53986 13.7952C8.45047 13.7848 8.36108 13.7661 8.26753 13.7619C8.17398 13.7495 8.08044 13.7536 7.98481 13.7474C7.88918 13.7536 7.79564 13.7495 7.70209 13.7619C7.60854 13.7661 7.51915 13.7848 7.42976 13.7952C7.38611 13.8035 7.34453 13.816 7.30087 13.8222L7.23643 13.8347C7.21564 13.8409 7.19693 13.8451 7.17614 13.8513C7.13664 13.8617 7.09715 13.8721 7.05765 13.8804C7.02023 13.8908 6.98489 13.9054 6.94955 13.9158C6.91421 13.9262 6.88095 13.9365 6.84976 13.9469C6.82274 13.9573 6.79571 13.9657 6.77077 13.976C6.74582 13.9844 6.72088 13.9927 6.69593 13.9989C6.66891 14.0093 6.6398 14.0259 6.61693 14.0384C6.51923 14.0883 6.46102 14.1132 6.46102 14.1132C6.23651 14.2068 5.97665 14.1008 5.8831 13.8742C5.85576 13.8059 5.84544 13.732 5.85305 13.6588C5.86065 13.5857 5.88595 13.5155 5.92676 13.4543V13.4543Z" fill="#454140"/>
<path d="M18.4081 14.109C18.4081 14.109 18.3499 14.084 18.2522 14.0341C18.2294 14.0217 18.2002 14.005 18.1732 13.9946C18.1483 13.9884 18.1254 13.9801 18.0984 13.9718C18.0734 13.9635 18.0464 13.9531 18.0194 13.9427C17.9882 13.9323 17.9529 13.9219 17.9196 13.9115C17.8843 13.9011 17.8489 13.8865 17.8115 13.8761C17.7741 13.8657 17.7346 13.8554 17.693 13.847C17.6722 13.8408 17.6535 13.8366 17.6327 13.8304C17.6119 13.8262 17.5911 13.8221 17.5683 13.8179C17.5246 13.8117 17.483 13.7992 17.4394 13.7909C17.35 13.7805 17.2606 13.7618 17.1671 13.7576C17.0735 13.7452 16.98 13.7493 16.8843 13.7431C16.7887 13.7493 16.6952 13.7452 16.6016 13.7576C16.5081 13.7618 16.4187 13.7805 16.3293 13.7909C16.2856 13.7992 16.2441 13.8117 16.2004 13.8179L16.136 13.8304C16.1152 13.8366 16.0965 13.8408 16.0757 13.847C16.0362 13.8574 15.9967 13.8678 15.9572 13.8761C15.9198 13.8865 15.8844 13.9011 15.8491 13.9115C15.7784 13.9323 15.714 13.9551 15.6578 13.978C15.6287 13.9884 15.6038 14.0009 15.5768 14.0071C15.5518 14.0175 15.531 14.0279 15.5102 14.0362C15.4292 14.0736 15.3772 14.0903 15.3772 14.0903L15.3003 14.1173C15.247 14.136 15.1906 14.144 15.1343 14.1409C15.078 14.1377 15.0228 14.1234 14.972 14.0989C14.9212 14.0744 14.8758 14.04 14.8383 13.9979C14.8008 13.9557 14.772 13.9066 14.7535 13.8533C14.7057 13.7161 14.7327 13.5706 14.8097 13.4604C14.8097 13.4604 14.8512 13.4022 14.9365 13.3045C14.9573 13.2795 14.9801 13.2525 15.0072 13.2234C15.0342 13.1964 15.0674 13.1693 15.0986 13.1382C15.1319 13.109 15.1693 13.0758 15.2067 13.0425C15.2462 13.0093 15.2899 12.9822 15.3356 12.949C15.3813 12.9178 15.4292 12.8845 15.4811 12.8534C15.5352 12.8242 15.5892 12.7951 15.6454 12.766C15.7015 12.7349 15.7618 12.7078 15.8241 12.685C15.8865 12.66 15.9509 12.6351 16.0175 12.6122C16.1526 12.5748 16.2919 12.5332 16.4374 12.5145C16.5829 12.4854 16.7326 12.4833 16.8823 12.4771C17.0319 12.4854 17.1816 12.4854 17.3271 12.5145C17.4727 12.5311 17.614 12.5748 17.7471 12.6122C17.8136 12.6351 17.878 12.66 17.9404 12.685C18.0028 12.7099 18.063 12.7349 18.1192 12.766C18.1753 12.7951 18.2314 12.8263 18.2834 12.8534C18.3354 12.8845 18.3832 12.9178 18.4289 12.949C18.4747 12.9822 18.5183 13.0093 18.5599 13.0446C18.6015 13.0799 18.641 13.1153 18.6784 13.1485C18.7137 13.1818 18.7491 13.2109 18.7782 13.24C18.8031 13.267 18.8197 13.2899 18.8364 13.3107C18.905 13.3959 18.9403 13.45 18.9403 13.45C19.0775 13.6516 19.0255 13.926 18.8239 14.0632C18.6992 14.1526 18.5391 14.163 18.4081 14.109V14.109Z" fill="#454140"/>
<path d="M7.89128 17.3249C8.63525 17.3249 9.23836 16.7004 9.23836 15.93C9.23836 15.1597 8.63525 14.5351 7.89128 14.5351C7.1473 14.5351 6.54419 15.1597 6.54419 15.93C6.54419 16.7004 7.1473 17.3249 7.89128 17.3249Z" fill="#312D2D"/>
<path d="M16.9799 17.3249C17.7239 17.3249 18.327 16.7004 18.327 15.93C18.327 15.1597 17.7239 14.5351 16.9799 14.5351C16.236 14.5351 15.6328 15.1597 15.6328 15.93C15.6328 16.7004 16.236 17.3249 16.9799 17.3249Z" fill="#312D2D"/>
<path d="M14.7618 19.595C13.8908 20.1126 11.0386 20.1126 10.1676 19.595C9.66866 19.2977 9.15727 19.753 9.36515 20.2062C9.56888 20.6531 11.1259 21.6884 12.473 21.6884C13.8201 21.6884 15.3564 20.6531 15.5601 20.2062C15.7659 19.7509 15.2628 19.2977 14.7618 19.595V19.595Z" fill="#444444"/>
<path d="M12.473 0.683823C8.35484 0.683823 5.18045 3.03707 3.67953 6.81224C3.07667 8.32771 2.58606 9.94089 2.58606 11.5707C2.58606 14.4042 3.11824 16.8988 3.11824 16.8988C4.57343 15.0278 4.15766 13.1569 4.15766 13.1569C6.02862 10.6622 11.6041 8.65825 11.6415 8.58341L10.5189 10.8306C10.3775 11.1113 10.6187 11.448 10.9243 11.3815C16.2149 10.2465 18.5391 8.20714 18.5391 8.20714C18.5391 8.20714 18.7095 11.2859 20.9963 13.3647C20.9963 13.3647 20.9963 15.0278 21.6199 16.8988C21.6199 16.8988 22.6593 13.1569 21.9484 9.14885C21.4806 6.51704 19.9693 3.9871 17.7824 2.35729C16.2461 1.21185 14.3752 0.683823 12.473 0.683823Z" fill="#312D2D"/>
<path d="M16.0466 0.461382C18.115 1.14324 19.3852 2.45291 19.7781 4.09727C19.8945 4.57956 19.8093 9.0158 11.2091 3.89562C8.00979 1.99141 8.88499 0.798153 9.25918 0.663029C10.7227 0.137083 13.3774 -0.417967 16.0466 0.461382V0.461382Z" fill="url(#paint3_radial)"/>
<path d="M23.3329 15.6951C23.3329 15.6951 26.3929 11.3628 24.1208 6.47962C22.6385 3.299 19.6284 3.37176 19.5411 3.38631C19.5411 3.38631 19.8675 4.18458 19.751 4.79368C19.5535 5.8331 18.6888 6.13245 18.6888 6.13245C22.0939 8.20714 20.9339 13.5186 23.3329 15.6951V15.6951Z" fill="url(#paint4_radial)"/>
<path d="M4.83954 2.40302C2.64637 3.18674 1.67347 2.5714 1.66723 2.55477C1.60071 2.81047 1.74415 4.36336 3.10163 3.87899C3.68578 3.66695 4.8333 2.47577 4.83954 2.40302V2.40302Z" fill="url(#paint5_radial)"/>
<path d="M1.65889 2.5527C1.65889 2.55478 1.65681 2.55894 1.65681 2.56517C1.65057 2.8084 1.65473 4.67104 2.70246 4.8415L4.28446 4.14509C2.31164 4.10559 1.66097 2.54646 1.66097 2.54646C1.66097 2.54646 1.65889 2.55062 1.65889 2.5527V2.5527Z" fill="url(#paint6_radial)"/>
<defs>
<radialGradient id="paint0_radial" cx="0" cy="0" r="1" gradientUnits="userSpaceOnUse" gradientTransform="translate(16.0809 18.7639) rotate(151.359) scale(7.00994 4.55293)">
<stop offset="0.728" stop-color="#454140" stop-opacity="0"/>
<stop offset="1" stop-color="#454140"/>
</radialGradient>
<radialGradient id="paint1_radial" cx="0" cy="0" r="1" gradientUnits="userSpaceOnUse" gradientTransform="translate(8.88854 18.6923) rotate(28.6411) scale(7.06877 4.59114)">
<stop offset="0.728" stop-color="#454140" stop-opacity="0"/>
<stop offset="1" stop-color="#454140"/>
</radialGradient>
<radialGradient id="paint2_radial" cx="0" cy="0" r="1" gradientUnits="userSpaceOnUse" gradientTransform="translate(4.70196 9.17834) rotate(-85.7217) scale(7.13614 5.94751)">
<stop offset="0.699" stop-color="#454140" stop-opacity="0"/>
<stop offset="1" stop-color="#454140"/>
</radialGradient>
<radialGradient id="paint3_radial" cx="0" cy="0" r="1" gradientUnits="userSpaceOnUse" gradientTransform="translate(11.9773 5.7504) rotate(-157.19) scale(9.82764 5.52317)">
<stop offset="0.699" stop-color="#454140" stop-opacity="0"/>
<stop offset="1" stop-color="#454140"/>
</radialGradient>
<radialGradient id="paint4_radial" cx="0" cy="0" r="1" gradientUnits="userSpaceOnUse" gradientTransform="translate(18.8108 12.6056) rotate(58.4319) scale(10.005 7.42282)">
<stop offset="0.699" stop-color="#454140" stop-opacity="0"/>
<stop offset="1" stop-color="#454140"/>
</radialGradient>
<radialGradient id="paint5_radial" cx="0" cy="0" r="1" gradientUnits="userSpaceOnUse" gradientTransform="translate(2.71309 1.75022) rotate(4.5657) scale(1.81727 2.1549)">
<stop offset="0.58" stop-color="#454140"/>
<stop offset="1" stop-color="#454140" stop-opacity="0"/>
</radialGradient>
<radialGradient id="paint6_radial" cx="0" cy="0" r="1" gradientUnits="userSpaceOnUse" gradientTransform="translate(3.64065 3.94635) rotate(-51.6059) scale(1.501 2.38148)">
<stop offset="0.702" stop-color="#454140" stop-opacity="0"/>
<stop offset="1" stop-color="#454140"/>
</radialGradient>
</defs>
</svg>
