<svg width="124" height="100" viewBox="0 0 124 100" fill="none" xmlns="http://www.w3.org/2000/svg">
<path d="M100 50C100 62.0152 95.6733 73.6287 87.8117 82.715C79.9501 91.8014 69.0795 97.7529 57.1891 99.4805C45.2987 101.208 33.1838 98.5961 23.0615 92.1226C12.9392 85.6492 5.48653 75.7472 2.0673 64.2287C-1.35193 52.7103 -0.509017 40.3457 4.44178 29.3979C9.39258 18.45 18.1201 9.65101 29.0273 4.61117C39.9345 -0.428672 52.2917 -1.37231 63.8377 1.95295C75.3836 5.27821 85.346 12.65 91.9017 22.7192L85.6165 26.8113C80.0441 18.2525 71.5761 11.9865 61.762 9.16001C51.948 6.33354 41.4443 7.13563 32.1732 11.4195C22.9021 15.7034 15.4837 23.1825 11.2755 32.4882C7.06734 41.7939 6.35086 52.3037 9.25721 62.0944C12.1636 71.8851 18.4983 80.3018 27.1023 85.8042C35.7062 91.3067 46.0039 93.5268 56.1107 92.0584C66.2175 90.59 75.4576 85.5312 82.14 77.8078C88.8223 70.0844 92.5 60.213 92.5 50H100Z" fill="black"/>
<path d="M82 39V44.5H98V19" stroke="url(#paint0_linear)" stroke-width="5"/>
<path d="M121.5 26V21.5H105.5V32H121V44.5H105V39" stroke="black" stroke-width="5"/>
<defs>
<linearGradient id="paint0_linear" x1="90" y1="19" x2="90" y2="44.5" gradientUnits="userSpaceOnUse">
<stop stop-color="#C9000C"/>
<stop offset="1" stop-color="#EC13F0"/>
</linearGradient>
</defs>
</svg>
