<svg width="111" height="100" viewBox="0 0 111 100" fill="none" xmlns="http://www.w3.org/2000/svg">
<path d="M100 50C100 61.2088 96.2337 72.0925 89.3058 80.904C82.3779 89.7154 72.6901 95.9434 61.7978 98.5882C50.9055 101.233 39.4404 100.141 29.2431 95.4879C19.0458 90.8347 10.7078 82.8901 5.56754 72.9294C0.42732 62.9687 -1.21693 51.5697 0.898764 40.5624C3.01445 29.5551 8.76736 19.5779 17.2339 12.2325C25.7005 4.88712 36.3897 0.599637 47.5854 0.0583377C58.7811 -0.482962 69.834 2.75332 78.9697 9.24764L74.6243 15.3605C66.8589 9.84032 57.4639 7.08948 47.9476 7.54959C38.4312 8.00969 29.3454 11.654 22.1488 17.8976C14.9523 24.1412 10.0623 32.6218 8.26395 41.978C6.46561 51.3343 7.86322 61.0234 12.2324 69.49C16.6016 77.9566 23.6889 84.7095 32.3566 88.6647C41.0244 92.62 50.7697 93.548 60.0281 91.3C69.2866 89.0519 77.5212 83.7581 83.4099 76.2684C89.2987 68.7787 92.5 59.5275 92.5 50H100Z" fill="black"/>
<path d="M67.6795 44L85 14L102.321 44H67.6795Z" stroke="black" stroke-width="5"/>
<path d="M83.6735 44.25L94 26.8901L104.326 44.25H83.6735Z" stroke="url(#paint0_linear)" stroke-width="5"/>
<defs>
<linearGradient id="paint0_linear" x1="94" y1="22" x2="94" y2="55" gradientUnits="userSpaceOnUse">
<stop stop-color="#BA0202"/>
<stop offset="1" stop-color="#FFA800"/>
</linearGradient>
</defs>
</svg>
